<svg width="316" height="61" viewBox="0 0 316 61" fill="none" xmlns="http://www.w3.org/2000/svg">
<path fill-rule="evenodd" clip-rule="evenodd" d="M35.7291 0H47.6646C50.8256 0 53.2645 0.776627 54.9812 2.32988C56.698 3.88313 57.5564 6.13126 57.5564 9.07427C57.5564 11.1725 57.0386 12.9574 56.0031 14.4289C54.9676 15.9004 53.4961 16.9495 51.5886 17.5763L57.3929 28.5717L51.5886 39.5671C53.4961 40.1938 54.9676 41.243 56.0031 42.7145C57.0386 44.186 57.5564 45.9708 57.5564 48.0691C57.5564 51.0121 56.698 53.2602 54.9812 54.8135C53.2645 56.3667 50.8256 57.1434 47.6646 57.1434H35.7291V57.1161L27.7953 57.0004C26.3793 56.9797 25.2359 55.8377 25.2137 54.4216L24.8367 30.4221L0.718 4.96016C-0.00192684 4.20014 -0.200367 3.08453 0.213314 2.12286C0.626994 1.1612 1.57339 0.538065 2.62026 0.538065H19.6025C20.3406 0.538065 21.0445 0.849355 21.541 1.3954L29.6299 10.2901L33.791 1.50948C34.1727 0.704103 34.912 0.183196 35.7291 0.0466221V0ZM35.7291 9.65678L31.0156 19.6029L18.4437 5.77846H8.71132L29.3428 27.559C29.794 28.0354 30.0501 28.6637 30.0604 29.3197L30.4135 51.7976L35.7291 51.8752L35.7291 28.5717V9.65678ZM46.561 18.1077L52.0791 28.5717L46.561 39.0357L40.9202 39.0357L40.9202 28.5717V18.1077H46.561ZM46.7245 13.8158C48.414 13.8158 49.7765 13.4207 50.812 12.6304C51.8475 11.8402 52.3652 10.6548 52.3652 9.07427C52.3652 5.88601 50.485 4.29188 46.7245 4.29188H40.9202V13.8158H46.7245ZM46.7245 43.3276C48.414 43.3276 49.7765 43.7227 50.812 44.513C51.8475 45.3032 52.3652 46.4886 52.3652 48.0691C52.3652 51.2574 50.485 52.8515 46.7245 52.8515H40.9202V43.3276H46.7245Z" fill="black"/>
<path d="M74 48.9906V5.04706H94.3087C99.2486 5.04706 102.839 6.32078 105.08 8.86824C107.368 11.3702 108.511 14.782 108.511 19.1035C108.511 22.1969 107.733 24.8353 106.178 27.0188C104.623 29.2024 102.382 30.7263 99.4544 31.5906C100.278 32.182 100.918 32.8188 101.376 33.5012C101.833 34.1835 102.29 35.0933 102.748 36.2306L108.305 48.9906H100.621L95.2006 36.7082C94.6975 35.5255 94.08 34.6839 93.3481 34.1835C92.662 33.6831 91.4728 33.4329 89.7804 33.4329H81.4785V48.9906H74ZM81.4785 27.4282H92.319C95.0176 27.4282 97.1446 26.7686 98.6997 25.4494C100.255 24.1302 101.032 22.0149 101.032 19.1035C101.032 13.5992 98.3567 10.8471 93.0051 10.8471H81.4785V27.4282Z" fill="black"/>
<path d="M131.338 49.6729C125.666 49.6729 121.275 48.2855 118.165 45.5106C115.054 42.7357 113.499 38.4824 113.499 32.7506C113.499 27.5647 114.826 23.4706 117.479 20.4682C120.132 17.4659 124.157 15.9647 129.554 15.9647C134.494 15.9647 138.199 17.2612 140.669 19.8541C143.185 22.4016 144.442 25.6996 144.442 29.7482V35.7529H120.635C121.001 38.8918 122.144 41.0525 124.065 42.2353C125.986 43.418 128.914 44.0094 132.847 44.0094C134.494 44.0094 136.186 43.8502 137.924 43.5318C139.663 43.2133 141.172 42.8039 142.453 42.3035V47.7624C140.989 48.3992 139.297 48.8769 137.376 49.1953C135.5 49.5137 133.488 49.6729 131.338 49.6729ZM120.635 30.9082H137.856V28.6565C137.856 26.4275 137.238 24.6988 136.003 23.4706C134.768 22.1969 132.687 21.56 129.76 21.56C126.284 21.56 123.882 22.3106 122.556 23.8118C121.275 25.3129 120.635 27.6784 120.635 30.9082Z" fill="black"/>
<path d="M155.312 61C152.842 61 150.738 60.6816 149 60.0447V54.5176C149.777 54.7906 150.486 54.9725 151.127 55.0635C151.813 55.1545 152.499 55.2 153.185 55.2C154.603 55.2 155.746 54.9725 156.615 54.5176C157.485 54.0627 158.239 53.3349 158.88 52.3341C159.566 51.3788 160.298 50.1278 161.075 48.5812L146.598 16.6471H154.351L164.78 40.6659L175.346 16.6471H183.03L169.789 47.1482C168.645 49.8776 167.41 52.2659 166.084 54.3129C164.803 56.4055 163.294 58.0431 161.555 59.2259C159.863 60.4086 157.782 61 155.312 61Z" fill="black"/>
<path d="M188.976 48.9906V16.6471H195.837L196.18 20.0588C197.644 18.9216 199.382 17.9663 201.394 17.1929C203.453 16.3741 205.717 15.9647 208.187 15.9647C212.395 15.9647 215.46 16.9427 217.381 18.8988C219.302 20.8549 220.262 23.9027 220.262 28.0424V48.9906H212.852V28.3835C212.852 25.8816 212.326 24.1302 211.274 23.1294C210.268 22.1286 208.347 21.6282 205.511 21.6282C203.819 21.6282 202.149 21.9694 200.502 22.6518C198.902 23.3341 197.552 24.2212 196.454 25.3129V48.9906H188.976Z" fill="black"/>
<path d="M237.791 49.6729C235.732 49.6729 233.811 49.309 232.027 48.5812C230.289 47.8533 228.894 46.7616 227.842 45.3059C226.79 43.8047 226.264 41.9623 226.264 39.7788C226.264 36.6855 227.316 34.2063 229.42 32.3412C231.57 30.4306 234.863 29.4753 239.3 29.4753H249.729V28.0424C249.729 26.4957 249.477 25.2675 248.974 24.3576C248.517 23.4478 247.648 22.7882 246.367 22.3788C245.132 21.9694 243.302 21.7647 240.878 21.7647C237.036 21.7647 233.445 22.3333 230.106 23.4706V17.9435C231.57 17.3522 233.354 16.8745 235.458 16.5106C237.562 16.1467 239.826 15.9647 242.25 15.9647C247.007 15.9647 250.621 16.92 253.091 18.8306C255.606 20.7412 256.864 23.8573 256.864 28.1788V48.9906H250.484L250.003 45.7153C248.677 46.989 247.03 47.9671 245.063 48.6494C243.142 49.3318 240.718 49.6729 237.791 49.6729ZM239.78 44.3506C242.022 44.3506 243.966 43.9867 245.612 43.2588C247.305 42.4855 248.677 41.462 249.729 40.1882V34.5247H239.437C237.242 34.5247 235.641 34.9569 234.635 35.8212C233.674 36.64 233.194 37.9137 233.194 39.6424C233.194 41.3255 233.765 42.531 234.909 43.2588C236.052 43.9867 237.676 44.3506 239.78 44.3506Z" fill="black"/>
<path d="M278.605 49.6729C275.678 49.6729 273.094 49.1725 270.852 48.1718C268.611 47.171 266.873 45.5106 265.638 43.1906C264.403 40.8706 263.785 37.7545 263.785 33.8424C263.785 29.9757 264.449 26.7231 265.775 24.0847C267.102 21.4008 268.931 19.3765 271.264 18.0118C273.642 16.6471 276.318 15.9647 279.291 15.9647C281.258 15.9647 282.996 16.1922 284.506 16.6471C286.061 17.102 287.547 17.8071 288.965 18.7624V3H296.444V48.9906H290.063L289.583 45.7835C288.119 47.1027 286.518 48.0808 284.78 48.7176C283.042 49.3545 280.984 49.6729 278.605 49.6729ZM280.595 44.0776C283.934 44.0776 286.724 42.9404 288.965 40.6659V24.4941C286.816 22.5835 284.117 21.6282 280.869 21.6282C277.713 21.6282 275.335 22.6745 273.734 24.7671C272.133 26.8596 271.333 29.9074 271.333 33.9106C271.333 37.7773 272.064 40.4384 273.528 41.8941C275.037 43.3498 277.393 44.0776 280.595 44.0776Z" fill="black"/>
<path d="M307.835 9.89176V3.75059H316V9.89176H307.835ZM308.453 48.9906V22.3106H303.513L304.199 16.6471H315.931V48.9906H308.453Z" fill="black"/>
</svg>
